<svg xmlns="http://www.w3.org/2000/svg" xmlns:xlink="http://www.w3.org/1999/xlink" xml:lang="en" height="326.50000000000006pt" width="369.20000000000005pt" viewBox="-4.6 -312.90000000000003 369.20000000000005 326.50000000000006"><path d="M 0.0,-0.0 L 36.0,-0.0 L 36.0,-9.0 L 72.0,-9.0 L 72.0,9.0 L 36.0,9.0 L 36.0,-0.0 M 72.0,-0.0 L 108.0,-0.0" style="stroke:black;fill:none;stroke-width:2.0;stroke-dasharray:-;stroke-linecap:round;stroke-linejoin:round;" /><path d="M 252.0,-216.0 L 288.0,-216.0 L 288.0,-225.0 L 324.0,-225.0 L 324.0,-207.0 L 288.0,-207.0 L 288.0,-216.0 M 324.0,-216.0 L 360.0,-216.0" style="stroke:black;fill:none;stroke-width:2.0;stroke-dasharray:-;stroke-linecap:round;stroke-linejoin:round;" /><path d="M 252.0,-36.0 L 288.0,-36.0 L 288.0,-45.0 L 324.0,-45.0 L 324.0,-27.0 L 288.0,-27.0 L 288.0,-36.0 M 324.0,-36.0 L 360.0,-36.0" style="stroke:black;fill:none;stroke-width:2.0;stroke-dasharray:-;stroke-linecap:round;stroke-linejoin:round;" /><path d="M 54.0,-252.0 L 126.0,-252.0 L 198.0,-252.0" style="stroke:black;fill:none;stroke-width:2.0;stroke-dasharray:-;stroke-linecap:round;stroke-linejoin:round;" /><path d="M 54.0,-223.20000000000002 L 126.0,-223.20000000000002 L 198.0,-223.20000000000002" style="stroke:black;fill:none;stroke-width:2.0;stroke-dasharray:-;stroke-linecap:round;stroke-linejoin:round;" /><path d="M 54.0,-108.0 L 126.0,-108.0 L 198.0,-108.0" style="stroke:black;fill:none;stroke-width:2.0;stroke-dasharray:-;stroke-linecap:round;stroke-linejoin:round;" /><path d="M 54.0,-79.2 L 126.0,-79.2 L 198.0,-79.2" style="stroke:black;fill:none;stroke-width:2.0;stroke-dasharray:-;stroke-linecap:round;stroke-linejoin:round;" /><text x="54.0" y="-26.6" dominant-baseline="ideographic" fill="black" font-size="14.0" font-family="sans" text-anchor="middle"><tspan x="54.0" dy="14.0">ESP32</tspan></text><text x="306.0" y="-242.6" dominant-baseline="ideographic" fill="black" font-size="14.0" font-family="sans" text-anchor="middle"><tspan x="306.0" dy="14.0">NEO-6M GPS</tspan></text><text x="306.0" y="-62.6" dominant-baseline="ideographic" fill="black" font-size="14.0" font-family="sans" text-anchor="middle"><tspan x="306.0" dy="14.0">SSD1306 OLED</tspan></text><text x="126.0" y="-269.6" dominant-baseline="ideographic" fill="black" font-size="14.0" font-family="sans" text-anchor="middle"><tspan x="126.0" dy="14.0">TX -&gt; RX16</tspan></text><text x="126.0" y="-240.79999999999998" dominant-baseline="ideographic" fill="black" font-size="14.0" font-family="sans" text-anchor="middle"><tspan x="126.0" dy="14.0">RX -&gt; TX17</tspan></text><text x="126.0" y="-125.60000000000001" dominant-baseline="ideographic" fill="black" font-size="14.0" font-family="sans" text-anchor="middle"><tspan x="126.0" dy="14.0">SDA GPIO21</tspan></text><text x="126.0" y="-96.80000000000001" dominant-baseline="ideographic" fill="black" font-size="14.0" font-family="sans" text-anchor="middle"><tspan x="126.0" dy="14.0">SCL GPIO22</tspan></text><circle cx="54.0" cy="-288.0" r="2.6999999999999997" style="stroke:black;fill:black;stroke-width:2.0;stroke-dasharray:-;" /><text x="54.0" y="-308.3" dominant-baseline="ideographic" fill="black" font-size="14.0" font-family="sans" text-anchor="middle"><tspan x="54.0" dy="14.0">3.3V / 5V shared</tspan></text><circle cx="54.0" cy="-36.0" r="2.6999999999999997" style="stroke:black;fill:black;stroke-width:2.0;stroke-dasharray:-;" /><text x="54.0" y="-56.300000000000004" dominant-baseline="ideographic" fill="black" font-size="14.0" font-family="sans" text-anchor="middle"><tspan x="54.0" dy="14.0">GND shared</tspan></text></svg>